<svg xmlns="http://www.w3.org/2000/svg" viewBox="0 0 257 95" fill="none">
  <defs>
    <linearGradient id="theo-grad" x1="0%" y1="50%" x2="100%" y2="50%">
      <stop offset="0%" stop-color="#60a5fa"/>
      <stop offset="50%" stop-color="#a78bfa"/>
      <stop offset="100%" stop-color="#e879f9"/>
    </linearGradient>
  </defs>
  <g transform="translate(10.144,77.248)">
    <path d="M52.03 1.06L22.75 1.06L22.75-7.10L14.30-7.10L14.30-31.78L5.86-31.78L5.86-44.83L14.30-44.83L14.30-61.25L26.50-61.25L26.50-44.83L52.03-44.83L52.03-31.78L26.50-31.78L26.50-12L48.29-12L48.29-20.26L60.58-20.26L60.58-7.10L52.03-7.10L52.03 1.06ZM82.56 1.06L70.37 1.06L70.37-61.25L82.56-61.25L82.56-36.58L87.26-36.58L87.26-44.83L108-44.83L108-36.58L116.54-36.58L116.54 1.06L104.26 1.06L104.26-31.78L91.01-31.78L91.01-23.62L82.56-23.62L82.56 1.06ZM163.97 1.06L134.78 1.06L134.78-7.10L126.34-7.10L126.34-36.58L134.78-36.58L134.78-44.83L163.97-44.83L163.97-36.58L172.51-36.58L172.51-23.62L160.22-23.62L160.22-31.78L138.53-31.78L138.53-28.51L155.52-28.51L155.52-15.36L138.53-15.36L138.53-12L160.22-12L160.22-20.35L172.51-20.35L172.51-7.20L163.97-7.20L163.97 1.06ZM221.86 1.06L192.67 1.06L192.67-7.10L184.22-7.10L184.22-36.58L192.67-36.58L192.67-44.83L221.86-44.83L221.86-36.58L230.40-36.58L230.40-7.10L221.86-7.10L221.86 1.06ZM196.42-31.78L196.42-12L218.11-12L218.11-31.78L196.42-31.78Z" fill="url(#theo-grad)"/>
  </g>
</svg>
